<svg xmlns="http://www.w3.org/2000/svg" xmlns:xlink="http://www.w3.org/1999/xlink" viewBox="0,0,256,256" width="48px" height="48px"><g fill="none" fill-rule="nonzero" stroke="none" stroke-width="1" stroke-linecap="butt" stroke-linejoin="miter" stroke-miterlimit="10" stroke-dasharray="" stroke-dashoffset="0" font-family="none" font-weight="none" font-size="none" text-anchor="none" style="mix-blend-mode: normal"><g transform="scale(5.33333,5.33333)"><path d="M38,44h-26v-40h26c2.2,0 4,1.8 4,4v32c0,2.2 -1.8,4 -4,4z" fill="#6643ff"></path><path d="M10,4h2v40h-2c-2.2,0 -4,-1.8 -4,-4v-32c0,-2.2 1.8,-4 4,-4z" fill="#fffd01"></path><path d="M26,16c-2.20914,0 -4,1.79086 -4,4c0,2.20914 1.79086,4 4,4c2.20914,0 4,-1.79086 4,-4c0,-2.20914 -1.79086,-4 -4,-4zM33,30c0,0 -1.9,-4 -7,-4c-5.1,0 -7,4 -7,4v2h14z" fill="#fffd01"></path></g></g></svg>